<svg viewBox="0 0 80 60" xmlns="http://www.w3.org/2000/svg">
  <!-- 外框 -->
  <rect x="0" y="0" width="80" height="60" rx="6" fill="none" stroke="#374151" stroke-width="2"/>
  <!-- 圖片區域 -->
  <rect x="6" y="6" width="68" height="48" rx="3" fill="#3B82F6"/>
  <!-- 太陽 -->
  <circle cx="60" cy="18" r="6" fill="#FCD34D"/>
  <line x1="60" y1="8" x2="60" y2="12" stroke="#FCD34D" stroke-width="1.5" stroke-linecap="round"/>
  <line x1="69" y1="18" x2="65" y2="18" stroke="#FCD34D" stroke-width="1.5" stroke-linecap="round"/>
  <line x1="66" y1="12" x2="64" y2="14" stroke="#FCD34D" stroke-width="1.5" stroke-linecap="round"/>
  <line x1="66" y1="24" x2="64" y2="22" stroke="#FCD34D" stroke-width="1.5" stroke-linecap="round"/>
  <!-- 雲朵 -->
  <ellipse cx="45" cy="16" rx="6" ry="3" fill="white" opacity="0.8"/>
  <ellipse cx="48" cy="14" rx="4" ry="2.5" fill="white" opacity="0.8"/>
  <ellipse cx="42" cy="14" rx="3" ry="2" fill="white" opacity="0.8"/>
  <!-- 山峰 -->
  <path d="M6 40 L20 20 L35 35 L50 18 L65 32 L80 25 L80 54 L6 54 Z" fill="#059669"/>
  <!-- 湖泊/倒影 -->
  <path d="M6 40 L20 20 L35 35 L50 18 L65 32 L80 25 L80 45 L65 38 L50 52 L35 42 L20 48 L6 47 Z" fill="#0EA5E9" opacity="0.6"/>
  <!-- 圖片標示符號 -->
  <circle cx="18" cy="18" r="6" fill="white" opacity="0.9"/>
  <circle cx="18" cy="16" r="2" fill="#9CA3AF"/>
  <path d="M12 22 L18 16 L24 22" stroke="#9CA3AF" stroke-width="1.5" fill="none" stroke-linecap="round" stroke-linejoin="round"/>
</svg>