<?xml version="1.0" standalone="no"?>
<!DOCTYPE svg PUBLIC "-//W3C//DTD SVG 1.1//EN" "http://www.w3.org/Graphics/SVG/1.1/DTD/svg11.dtd">
<svg xmlns="http://www.w3.org/2000/svg" viewBox="0 0 80 60" width="80" height="60">
  <!-- 外框 -->
  <rect x="0" y="0" width="80" height="60" rx="6" fill="none" stroke="#374151" stroke-width="2"/>
  <!-- 小圖片網格 -->
  <rect x="8" y="8" width="18" height="14" rx="2" fill="#3B82F6"/>
  <circle cx="13" cy="13" r="2" fill="white" opacity="0.7"/>
  <path d="M10 18 L13 15 L16 18 Z" fill="white" opacity="0.7"/>
  
  <rect x="31" y="8" width="18" height="14" rx="2" fill="#D1D5DB"/>
  <circle cx="36" cy="13" r="2" fill="white" opacity="0.7"/>
  <path d="M33 18 L36 15 L39 18 Z" fill="white" opacity="0.7"/>
  
  <rect x="54" y="8" width="18" height="14" rx="2" fill="#D1D5DB"/>
  <circle cx="59" cy="13" r="2" fill="white" opacity="0.7"/>
  <path d="M56 18 L59 15 L62 18 Z" fill="white" opacity="0.7"/>
  
  <rect x="8" y="27" width="18" height="14" rx="2" fill="#D1D5DB"/>
  <circle cx="13" cy="32" r="2" fill="white" opacity="0.7"/>
  <path d="M10 37 L13 34 L16 37 Z" fill="white" opacity="0.7"/>
  
  <rect x="31" y="27" width="18" height="14" rx="2" fill="#D1D5DB"/>
  <circle cx="36" cy="32" r="2" fill="white" opacity="0.7"/>
  <path d="M33 37 L36 34 L39 37 Z" fill="white" opacity="0.7"/>
  
  <rect x="54" y="27" width="18" height="14" rx="2" fill="#D1D5DB"/>
  <circle cx="59" cy="32" r="2" fill="white" opacity="0.7"/>
  <path d="M56 37 L59 34 L62 37 Z" fill="white" opacity="0.7"/>
  
  <!-- 指示點 -->
  <circle cx="32" cy="48" r="2" fill="#3B82F6"/>
  <circle cx="40" cy="48" r="2" fill="#D1D5DB"/>
  <circle cx="48" cy="48" r="2" fill="#D1D5DB"/>
</svg>